<svg xmlns="http://www.w3.org/2000/svg" width="768" height="500"><path fill="#C74633" d="m62.305 199.832 3.76-.01c2.61-.005 5.22-.007 7.831-.007 3.96-.002 7.92-.02 11.881-.04 2.551-.003 5.102-.005 7.653-.005l3.536-.022c16.205.044 29.66 2.353 42.034 13.252l1.941 1.691c4.532 4.219 7.435 8.726 10.059 14.309l1.195 2.316c4.7 10.5 4.538 24.402 1.18 35.309C147.729 280.642 138.903 290.724 125 297c-9.24 3.418-18.36 3.458-28.059 3.434-1.637.004-3.274.01-4.91.015-3.416.01-6.83.007-10.245-.003-4.345-.011-8.69.009-13.034.038-3.376.018-6.752.018-10.128.012-1.6 0-3.201.006-4.802.019-16.431.11-29.701-3.69-42.01-15.015C.102 272.828-1.275 260.895-.77 244.307-.353 235.081 1.188 228.376 7 221l1.86-2.566c7.61-9.546 19.251-16.193 31.402-17.718 7.358-.707 14.654-.877 22.043-.884ZM28 229c-5.74 7.53-8.825 15.426-8 25 2.077 9.508 6.374 16.863 14 23 6.274 3.518 11.979 5.112 19.155 5.177l3.774.039c1.358.008 2.717.016 4.075.022l2.087.013c3.65.02 7.3.035 10.95.044 3.743.011 7.486.046 11.23.085 2.9.027 5.8.035 8.701.038 1.379.005 2.757.017 4.135.035 11.222.143 21.162-1.38 30.108-8.617 6.131-6.306 9.765-14.294 10.16-23.024-.232-9.511-3.524-17.01-10.086-23.867-6.735-5.723-13.965-8.054-22.659-8.106l-3.915-.03-4.227-.012-2.161-.009c-3.778-.015-7.555-.024-11.333-.028-3.882-.006-7.764-.03-11.646-.058a1571.76 1571.76 0 0 0-9.006-.026c-1.43-.003-2.86-.01-4.29-.024C46.53 218.545 37.095 219.87 28 229Z"/><path fill="#C64633" d="m166 200 41.875-.125 13.171-.055c5.35-.01 5.35-.01 7.864-.01 1.737-.004 3.474-.01 5.21-.021 28.38-.159 28.38-.159 39.435 9.598 7.362 8.218 9.962 17.187 9.746 28.015-.867 10.373-5.461 17.842-13.301 24.598-6.353 3.994-12.21 6.044-19.688 6.563l-3.574.253L244 269c10.33 9.034 10.33 9.034 20.875 17.813 4.827 3.914 9.657 7.862 14.125 12.187v1c-27.177 1.734-27.177 1.734-32.988-1.91-2.647-2.537-4.796-5.174-7.012-8.09a129.22 129.22 0 0 0-5.438-4.438c-4.534-3.657-8.817-7.508-13.08-11.474-4.097-3.79-8.378-7.307-12.724-10.81C203.02 259.364 198.4 255.288 194 251v-1l2.11-.011c6.59-.038 13.18-.095 19.771-.173a1442 1442 0 0 1 10.162-.087c3.903-.021 7.805-.068 11.707-.12l3.653-.003c6.98-.121 11.675-.818 17.597-4.606 3.087-3.685 3.838-7.232 4-12-.92-4.386-2.276-7.294-5.5-10.438-4.062-2.538-7.195-2.705-11.9-2.767l-1.983-.03c-2.116-.032-4.231-.057-6.347-.081l-3.923-.057c-4.845-.068-9.69-.128-14.535-.19L186 219v81h-20V200Z"/><path fill="#C74633" d="m712.484 199.805 4.657.008c4.044.008 8.088.027 12.132.05 4.144.02 8.287.03 12.43.04 8.1.02 16.198.055 24.297.097l-.933 2.28c-1.148 2.824-1.148 2.824-2.146 6.231-1.742 4.46-3.776 7.923-7.921 10.489-9.223 2.36-19.26 1.508-28.718 1.192-5.65-.175-11.302-.224-16.954-.279-1.953-.03-3.907-.094-5.86-.16-10.15-.213-19.355 1.34-26.968 8.532-3.335 3.813-5.898 7.91-7.5 12.715h92l-6 11-2.245 4.639c-2.322 2.931-3.634 3.338-7.373 4.033-4.824.364-9.636.228-14.468.11-1.785-.016-3.57-.027-5.355-.035-4.686-.03-9.37-.109-14.056-.198-4.786-.082-9.572-.118-14.358-.158-9.383-.086-18.764-.222-28.145-.391.781 1.445 1.567 2.887 2.355 4.328l1.325 2.435c3.845 6.518 10.401 10.94 17.493 13.287 3.918.973 7.292 1.227 11.323 1.269l2.16.03c2.332.03 4.664.048 6.996.065a3927.618 3927.618 0 0 0 17.668.187c4.358.04 8.715.091 13.073.141 8.535.097 17.071.181 25.607.258-2.548 6.618-5.122 12.79-10 18-4.967 1.805-9.77 1.623-14.98 1.41a628.21 628.21 0 0 0-4.38-.027 365.422 365.422 0 0 1-9.155-.183 447.385 447.385 0 0 0-11.625-.198c-3.739-.026-7.477-.089-11.215-.154l-2.107-.028c-15.959-.26-29.465-4.105-41.35-15.132-10.697-11.516-14.031-24.94-13.512-40.247.299-5.158 1.247-9.699 3.324-14.441l.773-2.02c4.685-10.894 15.256-20.59 26.04-25.292 11.007-3.837 22.16-3.966 33.671-3.883Z"/><path fill="#C74533" d="M355 199.25c.97-.015 1.939-.03 2.938-.047 7.655 1.992 11.666 8.668 15.5 15.11 1.044 1.702 2.09 3.404 3.136 5.105l1.674 2.74c3.101 5.03 6.307 9.995 9.502 14.967a31732.186 31732.186 0 0 1 6.181 9.645c2.043 3.19 4.082 6.381 6.12 9.574l4.012 6.281 1.971 3.089a1477.648 1477.648 0 0 0 10.306 15.9l2.115 3.218c1.338 2.031 2.68 4.06 4.026 6.086l1.8 2.734 1.596 2.406C427 298 427 298 427 300c-20.653 2.386-20.653 2.386-26.02-1.44-3.52-4.082-6.98-10.064-6.98-15.56l-1.927.067c-6.635.222-13.268.373-19.905.482-2.475.05-4.95.119-7.423.205a490.52 490.52 0 0 1-10.686.223l-3.338.156c-7.559.005-7.559.005-10.938-3.305-1.79-2.54-3.307-5.097-4.783-7.828a172.45 172.45 0 0 0-2.438-3.438C331 267 331 267 331 264h49c-3.866-6.236-3.866-6.236-7.735-12.47-2.868-4.626-5.714-9.261-8.507-13.932l-1.509-2.513a712.715 712.715 0 0 1-2.82-4.749c-1.09-1.812-2.252-3.58-3.429-5.336h-2c-1.324 1.692-1.324 1.692-2.617 3.926l-1.57 2.574-1.688 2.813a8426.297 8426.297 0 0 1-3.55 5.824l-1.816 2.986c-2.564 4.194-5.188 8.35-7.822 12.502l-1.48 2.34-2.964 4.679a4071.556 4071.556 0 0 0-6.09 9.634 401.42 401.42 0 0 1-3.07 4.767c-2.475 3.813-4.659 7.528-6.466 11.705-4.011 8.718-4.011 8.718-7.867 11.25-7.835 1.903-16.08.984-24 0 1.233-3.291 2.607-6.162 4.547-9.09l1.538-2.34 1.665-2.507 3.559-5.422 1.855-2.827c2.92-4.476 5.786-8.988 8.649-13.502a5707.999 5707.999 0 0 1 17.206-26.953c3.327-5.182 6.624-10.38 9.86-15.62l1.88-3.024a619.396 619.396 0 0 0 3.462-5.637c4.317-6.923 8.84-13.97 17.779-13.828Z"/><path fill="#C74633" d="m481.29 199.902 4.664.005c4.061.003 8.121.013 12.182.024 4.156.01 8.313.015 12.47.02 8.131.01 16.262.028 24.394.049l-.934 2.28c-1.148 2.823-1.148 2.823-2.127 6.231-1.732 4.483-3.768 7.932-7.939 10.489-9.365 2.362-19.591 1.507-29.181 1.192-5.745-.175-11.492-.224-17.238-.279-1.987-.03-3.974-.094-5.96-.16-10.2-.21-19.49 1.28-27.125 8.548-6.18 7.018-9.027 14.638-8.812 24.015.87 7.38 3.906 15.432 9.316 20.684 7.691 5.65 14.995 8.22 24.588 8.319l2.19.03c2.364.03 4.729.048 7.093.065a4035.268 4035.268 0 0 0 17.913.187c4.418.04 8.836.091 13.253.141 8.654.097 17.309.181 25.963.258-2.562 6.633-5.066 12.81-10 18-5.215 1.83-10.202 1.622-15.637 1.41a687.633 687.633 0 0 0-4.58-.027 400.204 400.204 0 0 1-9.58-.183c-4.057-.123-8.11-.175-12.17-.198a1154.17 1154.17 0 0 1-11.732-.154l-2.207-.028c-13.509-.21-25.266-2.358-36.094-10.82-.614-.44-1.227-.88-1.86-1.332-9.58-7.355-15.555-19.864-17.14-31.668-1.19-15.763 2.638-28.784 12.656-41.023 14.376-15.529 33.94-16.145 53.633-16.075Z"/><path fill="#C64633" d="M544 200h20v82h89l-5 9-1.079 2.81c-1.269 2.92-2.322 4.305-4.921 6.19-6.61 1.747-13.764 1.166-20.535 1.055-2.042-.004-4.084-.005-6.126-.003-4.276-.005-8.549-.04-12.824-.098-5.477-.074-10.952-.086-16.43-.077-4.214.002-8.429-.02-12.644-.052-2.019-.014-4.038-.02-6.058-.021a567.417 567.417 0 0 1-8.465-.094l-2.524.012c-4.308-.11-5.917-.337-9.389-3.141-3.44-4.427-3.141-7.916-3.119-13.345v-2.75c0-3.008.009-6.017.016-9.025l.005-6.247c.003-5.487.013-10.975.024-16.463.01-5.596.015-11.193.02-16.79.01-10.987.029-21.974.049-32.961Z"/></svg>