<svg xmlns="http://www.w3.org/2000/svg" width="480" height="427" xmlns:v="https://vecta.io/nano"><path d="M157.99 15.601l4.42 2.27 2.457 1.247 5.246 2.69a1140.63 1140.63 0 0 0 8.311 4.247l20.633 10.544a3731.68 3731.68 0 0 0 17.463 8.904l8.173 4.207 5.026 2.548L232 53.46c4.419 2.206 7.104 3.14 12 1.541 2.77-1.165 5.43-2.497 8.097-3.877l2.393-1.212 5.116-2.61a1731.4 1731.4 0 0 1 8.11-4.12l23.051-11.719 14.124-7.161 5.366-2.739 7.516-3.814 2.219-1.157C324.5 14.349 327.855 13.488 333 14c2.556.985 4.809 1.98 7.21 3.246l1.982 1.002 6.183 3.19 4.215 2.142c10.18 5.19 10.18 5.19 11.41 6.42.087 1.562.107 3.127.098 4.691l-.01 2.862-.025 3.01-.014 3.021A2109.54 2109.54 0 0 1 364 51a3060.136 3060.136 0 0 1-9.375 5l-2.695 1.445-2.578 1.367-2.38 1.27C345 61 345 61 343 61c.168 6.678.457 13.343.83 20.013l.254 6.8c-.187 12.305-.187 12.305 4.592 23.098 4.367 3.39 9.166 5.22 14.324 7.089 3.208 3.208 2.369 7.012 2.375 11.375l.074 2.617c.03 6.341.03 6.341-2.215 9.469-2.083 1.435-4.078 2.696-6.359 3.789l-2.07 1.016C353 147 353 147 351 147l1.282 3.646 4.797 13.682 2.06 5.867 2.994 8.543.997 2.85c1.596 4.599 3.136 9.204 4.56 13.859l.799 2.606 1.427 4.818.658 2.184.546 1.88c.87 2.278.87 2.278 2.903 4.7 2.293 3.903 2.54 6.869 2.485 11.26l.019 2.353-.01 7.78a2478.62 2478.62 0 0 1 .02 20.75l.006 15.87-.022 26.652a7224.16 7224.16 0 0 0 .008 30.807l.01 26.456.006 15.799-.02 14.853.006 5.45-.023 7.44.027 2.176c-.09 5.782-2.153 9.32-6.168 13.364-3.729 2.918-5.747 4.478-10.454 4.49l-2.608.013h-2.882l-3.049.01-10.18.019-7.272.02-21.87.039-10.297.015a39948.378 39948.378 0 0 1-43.106.044l-2.23.002-35.77.066-36.715.054-20.617.036-19.394.018-7.123.02c-3.239.017-6.476.01-9.715-.003l-2.855.033c-6.665-.066-10.084-1.397-14.875-6.154-3.868-4.942-4.504-7.631-4.502-13.78l-.011-2.344-.019-7.816-.02-5.588-.036-15.21a27411.51 27411.51 0 0 1-.06-39.206l-.076-34.316-.048-26.508-.036-15.839-.018-14.902-.02-5.468.003-7.469-.033-2.183c.064-5.047 1.48-7.783 4.521-11.738a80.134 80.134 0 0 0 2.234-5.04l1.276-3.16a693552764.918 693552764.918 0 0 1 2.394-6.107 2253.002 2253.002 0 0 0 6.254-16.213l3.31-8.609 2.11-5.52.998-2.575c1.614-4.257 2.885-8.223 3.424-12.776l-3.246-1.68-4.191-2.195-2.143-1.105c-5.307-2.793-5.307-2.793-6.42-5.02-.315-3.118-.324-6.243-.375-9.375l-.113-2.617c-.089-6.362-.089-6.362 2.629-9.406L120 116l3.008-1.703 3.117-1.547 3.133-1.578C132 110 132 110 135 110l.26-3.222a50441.093 50441.093 0 0 1 1.383-17.14L139 62l-2.445-.71c-4.383-1.59-8.34-3.697-12.43-5.915L116 51V30l14-7.375A604.672 604.672 0 0 0 138.688 18l3.062-1.625 2.61-1.414c4.822-1.755 9.005-1.464 13.63.64zm165.764 55.047l-2.201 1.13-4.618 2.375-7.078 3.628-4.478 2.305-2.147 1.095c-2.735 1.416-5.04 2.627-7.232 4.819 9.431 5.06 18.884 10.05 28.563 14.625l2.179 1.037c3.48 1.743 3.48 1.743 7.258 2.338.436-12.393-.867-24.673-2-37-2.669 0-5.851 2.416-8.246 3.648zM151 69c-1.128 2.257-1.289 3.895-1.535 6.402l-.264 2.685-.263 2.85-.271 2.876c-.577 6.408-.938 12.752-.667 19.187 4.417-.628 8.075-2.32 12.016-4.309l1.989-.99 4.135-2.075 6.352-3.167 4.024-2.018 1.925-.953c3.39-1.586 3.39-1.586 5.559-4.488l-2.307-1.146a8821.28 8821.28 0 0 1-8.527-4.243l-3.68-1.83-5.31-2.644-3.222-1.603C158 72 158 72 155.24 70.304c-2.095-1.472-2.095-1.472-4.239-1.304zm79.844 48.963l-2.519 1.276-5.416 2.755a2409.202 2409.202 0 0 1-8.574 4.347 8073.508 8073.508 0 0 0-24.38 12.363 3758.154 3758.154 0 0 1-14.91 7.547l-5.681 2.891a1122.13 1122.13 0 0 1-7.95 4.024l-2.368 1.23c-5.355 2.658-5.355 2.658-8.927 2.379L148 156l-2.312-.563L144 155c-1.917 5.007-2.568 9.724-3.07 15.012l-.26 2.576-.795 8.1a8363.81 8363.81 0 0 1-.55 5.478c-.942 8.402-.942 8.402-1.325 16.834h204c0-6.9-.077-13.55-.656-20.387l-.202-2.508-.642-7.793-.434-5.341L339 154c-3.642.647-3.642.647-7 2.125-2.786 1.219-4.058.684-7-.125a177.848 177.848 0 0 1-7.695-3.684l-2.244-1.124a2070.424 2070.424 0 0 1-7.186-3.63l-4.969-2.5-25.973-13.413-20.003-10.3a1286.82 1286.82 0 0 1-3.828-1.94l-5.352-2.698-3.14-1.585c-5.383-2.323-8.951.363-13.766 2.837zM354 198v5h2l-1-5h-1z" fill="#fcfcfc"/><path d="M157.99 15.601l4.42 2.27 2.457 1.247 5.246 2.69a1140.63 1140.63 0 0 0 8.311 4.247l20.633 10.544a3731.68 3731.68 0 0 0 17.463 8.904l8.173 4.207 5.026 2.548L232 53.46c4.419 2.206 7.104 3.14 12 1.541 2.77-1.165 5.43-2.497 8.097-3.877l2.393-1.212 5.116-2.61a1731.4 1731.4 0 0 1 8.11-4.12l23.051-11.719 14.124-7.161 5.366-2.739 7.516-3.814 2.219-1.157C324.5 14.349 327.855 13.488 333 14c2.556.985 4.809 1.98 7.21 3.246l1.982 1.002 6.183 3.19 4.215 2.142c10.18 5.19 10.18 5.19 11.41 6.42.087 1.562.107 3.127.098 4.691l-.01 2.862-.025 3.01-.014 3.021A2109.54 2109.54 0 0 1 364 51a3060.136 3060.136 0 0 1-9.375 5l-2.695 1.445-2.578 1.367-2.38 1.27C345 61 345 61 343 61c.168 6.678.457 13.343.83 20.013l.254 6.8c-.187 12.305-.187 12.305 4.592 23.098 4.367 3.39 9.166 5.22 14.324 7.089 3.208 3.208 2.369 7.012 2.375 11.375l.074 2.617c.03 6.341.03 6.341-2.215 9.469-2.083 1.435-4.078 2.696-6.359 3.789l-2.07 1.016C353 147 353 147 351 147l1.282 3.646 4.797 13.682 2.06 5.867 2.994 8.543.997 2.85c1.596 4.599 3.136 9.204 4.56 13.859l.799 2.606 1.427 4.818.658 2.184.546 1.88c.87 2.278.87 2.278 2.903 4.7 2.293 3.903 2.54 6.869 2.485 11.26l.019 2.353-.01 7.78a2478.62 2478.62 0 0 1 .02 20.75l.006 15.87-.022 26.652a7224.16 7224.16 0 0 0 .008 30.807l.01 26.456.006 15.799-.02 14.853.006 5.45-.023 7.44.027 2.176c-.09 5.782-2.153 9.32-6.168 13.364-3.729 2.918-5.747 4.478-10.454 4.49l-2.608.013h-2.882l-3.049.01-10.18.019-7.272.02-21.87.039-10.297.015a39948.378 39948.378 0 0 1-43.106.044l-2.23.002-35.77.066-36.715.054-20.617.036-19.394.018-7.123.02c-3.239.017-6.476.01-9.715-.003l-2.855.033c-6.665-.066-10.084-1.397-14.875-6.154-3.868-4.942-4.504-7.631-4.502-13.78l-.011-2.344-.019-7.816-.02-5.588-.036-15.21a27411.51 27411.51 0 0 1-.06-39.206l-.076-34.316-.048-26.508-.036-15.839-.018-14.902-.02-5.468.003-7.469-.033-2.183c.064-5.047 1.48-7.783 4.521-11.738a80.134 80.134 0 0 0 2.234-5.04l1.276-3.16a693552764.918 693552764.918 0 0 1 2.394-6.107 2253.002 2253.002 0 0 0 6.254-16.213l3.31-8.609 2.11-5.52.998-2.575c1.614-4.257 2.885-8.223 3.424-12.776l-3.246-1.68-4.191-2.195-2.143-1.105c-5.307-2.793-5.307-2.793-6.42-5.02-.315-3.118-.324-6.243-.375-9.375l-.113-2.617c-.089-6.362-.089-6.362 2.629-9.406L120 116l3.008-1.703 3.117-1.547 3.133-1.578C132 110 132 110 135 110l.26-3.222a50441.093 50441.093 0 0 1 1.383-17.14L139 62l-2.445-.71c-4.383-1.59-8.34-3.697-12.43-5.915L116 51V30l14-7.375A604.672 604.672 0 0 0 138.688 18l3.062-1.625 2.61-1.414c4.822-1.755 9.005-1.464 13.63.64zm165.764 55.047l-2.201 1.13-4.618 2.375-7.078 3.628-4.478 2.305-2.147 1.095c-2.735 1.416-5.04 2.627-7.232 4.819 9.431 5.06 18.884 10.05 28.563 14.625l2.179 1.037c3.48 1.743 3.48 1.743 7.258 2.338.436-12.393-.867-24.673-2-37-2.669 0-5.851 2.416-8.246 3.648zM151 69c-1.128 2.257-1.289 3.895-1.535 6.402l-.264 2.685-.263 2.85-.271 2.876c-.577 6.408-.938 12.752-.667 19.187 4.417-.628 8.075-2.32 12.016-4.309l1.989-.99 4.135-2.075 6.352-3.167 4.024-2.018 1.925-.953c3.39-1.586 3.39-1.586 5.559-4.488l-2.307-1.146a8821.28 8821.28 0 0 1-8.527-4.243l-3.68-1.83-5.31-2.644-3.222-1.603C158 72 158 72 155.24 70.304c-2.095-1.472-2.095-1.472-4.239-1.304zm79.844 48.963l-2.519 1.276-5.416 2.755a2409.202 2409.202 0 0 1-8.574 4.347 8073.508 8073.508 0 0 0-24.38 12.363 3758.154 3758.154 0 0 1-14.91 7.547l-5.681 2.891a1122.13 1122.13 0 0 1-7.95 4.024l-2.368 1.23c-5.355 2.658-5.355 2.658-8.927 2.379L148 156l-2.312-.563L144 155c-1.917 5.007-2.568 9.724-3.07 15.012l-.26 2.576-.795 8.1a8363.81 8363.81 0 0 1-.55 5.478c-.942 8.402-.942 8.402-1.325 16.834h204c0-6.9-.077-13.55-.656-20.387l-.202-2.508-.642-7.793-.434-5.341L339 154c-3.642.647-3.642.647-7 2.125-2.786 1.219-4.058.684-7-.125a177.848 177.848 0 0 1-7.695-3.684l-2.244-1.124a2070.424 2070.424 0 0 1-7.186-3.63l-4.969-2.5-25.973-13.413-20.003-10.3a1286.82 1286.82 0 0 1-3.828-1.94l-5.352-2.698-3.14-1.585c-5.383-2.323-8.951.363-13.766 2.837zM354 198v5h2l-1-5h-1zm-242 45l-.375 79.562-.166 25.12-.032 14.865-.06 9.929a1076.83 1076.83 0 0 0-.045 12.673 335.653 335.653 0 0 1-.037 4.646l-.007 6.289-.016 3.556c1.02 4.647 2.844 7.575 6.738 10.36 3.33.98 6.497.939 9.951.875l3.024.03 10.025-.031 7.19.027 17.497-.017 20.379-.02 36.36-.061 35.278-.041a11373.919 11373.919 0 0 0 44.56-.02h14.203l19.115-.048 7.023-.004 9.57-.042 2.821.03c4.512-.075 6.378-.172 9.993-3.094L367 405l2-2c.3-2.878.3-2.878.24-6.315l.006-1.98-.019-6.62v-4.806l-.024-12.903-.014-12.096-.064-35.405L369 243H112z" fill="#040807"/><path d="M154 23v2l2.674.844c3 1.043 5.71 2.23 8.543 3.659l3.006 1.508 3.21 1.626 3.365 1.69a5647.65 5647.65 0 0 1 8.845 4.455l15.728 7.917 3.374 1.695c7.058 3.536 14.149 6.973 21.328 10.256 4.362 2.012 8.65 4.166 12.927 6.35v2c4.752-1.241 8.885-2.767 13.281-5.012l3.532-1.788 1.828-.936 9.382-4.752 1.846-.933a534.64 534.64 0 0 1 14.256-6.954l3.383-1.586C287 44 287 44 289 44l1-3c1.793-.922 1.793-.922 4.188-1.75 5.27-1.953 10.186-4.373 15.164-6.964C313.798 30 313.798 30 316 30v-2a403.313 403.313 0 0 1 5.688-3.063l3.199-1.722c3.337-1.302 4.763-1.303 8.113-.215v2l3.688.813c3.561.884 6.22 2.181 9.312 4.187a123.08 123.08 0 0 0 5 2c-1 3-1 3-4.035 4.546a329.162 329.162 0 0 1-4.027 1.648l-4.418 1.863-2.287.97c-3.423 1.492-6.768 3.129-10.108 4.797l-1.985.99a2984.474 2984.474 0 0 0-6.14 3.088l-4.37 2.19-11.324 5.686-11.626 5.833L268 75v6l9 4v2l2.607.81c3.393 1.19 6.476 2.615 9.686 4.231l1.811.907 5.869 2.958 4.108 2.062 10.78 5.423 17.263 8.68a4454.92 4454.92 0 0 1 6.01 3.027l3.702 1.861 3.25 1.637A103.025 103.025 0 0 0 350 122c-1.26 3.78-3.003 4.354-6.434 6.107l-2.191 1.08-2.121 1.116-2.106 1.052-1.9.958c-6.846 2.092-11.768-.061-17.771-3.145l-2.385-1.19-4.946-2.504a744.253 744.253 0 0 0-7.603-3.812 2793.52 2793.52 0 0 1-4.816-2.432l-2.304-1.146c-5.308-2.738-5.308-2.738-6.423-6.084-2.768-1.111-2.768-1.111-6-2-6.834-2.679-13.486-5.618-20-9v-2l-2.594-.773c-4.728-1.703-8.856-4.24-13.187-6.766-4.207-1.91-7.37-2.126-11.75-.55l-2.525 1.292-2.89 1.456-3.07 1.591-3.188 1.614L213.75 102a5040.786 5040.786 0 0 1-10.089 5.136 1446.83 1446.83 0 0 0-6.27 3.205l-2.853 1.456-2.516 1.292C190 114 190 114 188 114v2l-14.142 7.263-4.804 2.474a828.362 828.362 0 0 1-6.933 3.544l-2.144 1.127c-4.49 2.247-7.847 3.15-12.977 2.592-2.355-.826-2.355-.826-4.402-1.969l-2.256-1.23-2.28-1.301-2.36-1.3A580.734 580.734 0 0 1 130 124c1-3 1-3 3.984-4.754l3.766-1.808 1.883-.92c2.571-1.246 5.143-2.431 7.808-3.463 3.72-1.534 7.204-3.467 10.746-5.368a1486.63 1486.63 0 0 1 24.75-12.812l3.429-1.759 3.224-1.624 2.87-1.457C195 89 195 89 199 89v-2l14-7v-5l-2.217-1.105-20.786-10.37-10.683-5.33-10.33-5.155-3.92-1.955c-6.51-3.242-12.988-6.507-19.302-10.12-2.281-1.25-4.623-2.165-7.075-3.028-3.694-1.407-6.186-2.754-8.687-5.937 3.203-2.834 5.78-3.52 10-4v-2c9.41-4.777 9.41-4.777 14-3z" fill="#00d19c"/><path d="M122.514 209.248l2.588-.046 2.798.043 3.007-.026 9.97.02 7.15-.026 17.403.007 14.147.016 2.035-.002 4.093-.004 38.37.049 32.906.014a11411.32 11411.32 0 0 1 42.308-.001l2.027.003 14.125-.007 19.021.037 6.982-.002 9.53.035 2.79-.031c6.313.1 9.478 1.484 14.236 5.673 3.283 6.566 1 14.66 1 22H112v-21c6.75-6.75 6.75-6.75 10.514-6.752z" fill="#dad9da"/><path d="M211 313h6v2l3-2c2.262-.195 2.262-.195 4.688-.125l2.449.055L229 313v2l1.813.75c2.704 1.545 3.754 2.456 5.187 5.25.911 4.201.78 7.53-1.254 11.363-2.374 3.102-4.24 5.304-8.144 6.168-3.204.042-5.718-.089-8.602-1.531v11h-7v-35zm-29 0h6v2l3-2c2.262-.195 2.262-.195 4.688-.125l2.449.055L200 313v2l1.813.75c2.704 1.545 3.754 2.456 5.187 5.25.911 4.201.78 7.53-1.254 11.363-2.374 3.102-4.24 5.304-8.144 6.168-3.204.042-5.718-.089-8.602-1.531v11h-7v-35z" fill="#1c1c1c"/><path d="M357 39c-.072 2.956-.142 5.216-1 8-2.32 1.773-3.904 2.66-6.54 3.723l-4.406 1.996-2.45 1.086c-4.856 2.228-9.571 4.736-14.315 7.191a4132.125 4132.125 0 0 1-6.27 3.19 1645.07 1645.07 0 0 0-9.636 4.924 1357.668 1357.668 0 0 1-9.469 4.824l-2.873 1.499C293.987 78.462 288.779 79.847 282 80l-2-4 3.688-1.875 2.074-1.055C288 72 288 72 290.112 71.21c3.91-1.638 7.59-3.64 11.325-5.64l29.776-15.297 8.521-4.296 5.454-2.735 2.556-1.297 2.361-1.176 2.068-1.04C354 39 354 39 357 39z" fill="#089571"/><path d="M237 100v6c-14.293 7.629-28.734 14.946-43.23 22.18a6770.995 6770.995 0 0 0-9.222 4.613l-8.915 4.457-3.32 1.663-3.09 1.54-2.7 1.349c-2.475 1.175-4.97 2.208-7.523 3.198l-2.813 1.125L154 147v-7c25.976-14 25.976-14 31-14v-2l8-2v-2l2.586-1.074c10.494-4.443 20.653-9.476 30.802-14.657l3.292-1.671 2.96-1.516C235 100 235 100 237 100z" fill="#089672"/><path d="M127 303c17 0 17 0 23 5 1.63 3.26 1.467 5.378 1 9-1.819 3.361-3.848 5.823-7 8-3.443.645-6.545.5-10 0l.035 2.59.028 3.348.035 3.34C134 337 134 337 133 338h-6v-35Z" fill="#171717"/><path d="M244 100c2.86.626 5.272 1.518 7.879 2.842l2.265 1.142 2.418 1.235 2.51 1.266 10.61 5.377a4506.3 4506.3 0 0 0 7.755 3.92l2.419 1.234 2.265 1.142 1.982 1.007c1.946.857 3.824 1.381 5.897 1.835v2l2.186.844 7.834 3.652 2.85 1.443 5.85 2.985c5.35 2.706 10.644 5.04 16.28 7.076 1 1 1 1 1.063 4.563L326 147c-4.385-1.36-8.38-3.067-12.48-5.125l-1.836-.918-5.872-2.957-4.096-2.058a1115.762 1115.762 0 0 1-23.615-12.213c-8.164-4.337-16.451-8.43-24.737-12.528l-3.247-1.611-2.918-1.442C245 107 245 107 244 106c-.04-2-.043-4 0-6zM124 40c3.384.692 6.175 1.973 9.252 3.529l3.178 1.598 3.422 1.736 5.36 2.698 11.302 5.706 9.277 4.68 6.945 3.509c5.66 2.847 11.312 5.485 17.234 7.744 2.508.988 4.825 2.197 7.155 3.55l2.258 1.297L201 77v3c-2.259 1.422-3.528 2.05-6.219 1.76-3.418-.934-6.448-2.396-9.59-3.995l-2.013-1.005a1862.748 1862.748 0 0 1-6.541-3.295l-4.553-2.283a6120.06 6120.06 0 0 1-11.95-6.012l-12.206-6.133L124 47v-7z" fill="#00c090"/><path d="M302 313c3.123 1.68 5.392 3.783 7 7v7h-17l2 4c4.665.137 4.665.137 9.25-.563C305 330 305 330 308 331c0 3 0 3-1.813 5.188-4.673 2.657-8.93 2.728-14.187 1.812-3.17-1.668-5.375-3.75-7-7-.505-5.145-.865-9.539 1.813-14.063 4.92-4.357 8.793-4.94 15.187-3.937zm-46 0c3.123 1.68 5.392 3.783 7 7v7h-17l2 4c4.665.137 4.665.137 9.25-.563C259 330 259 330 262 331c0 3 0 3-1.813 5.188-4.673 2.657-8.93 2.728-14.187 1.812-3.17-1.668-5.375-3.75-7-7-.505-5.145-.865-9.539 1.813-14.063 4.92-4.357 8.793-4.94 15.187-3.937z" fill="#1b1b1b"/><path d="m324.125 312.938 2.758.027L329 313v2l2.375.75c2.625 1.25 2.625 1.25 3.938 3C336 321 336 321 336 327h-18l2 4c4.263.071 7.88.11 12-1l2 1c-.296 2.86-.84 3.856-3 5.813-5.167 2.045-9.912 1.076-14.938-1.063-3.107-2.637-3.806-4.876-4.351-8.863-.272-4.256-.088-7.018 2.664-10.387 3.536-3.367 5.002-3.623 9.75-3.563Z" fill="#191919"/><path d="M154 314h6l.184 3.465.254 4.473.119 2.287c-.117 3.694-.117 3.694 1.443 6.775 2.458.25 2.458.25 5 0 2.846-2.846 2.456-5.804 2.625-9.625l.117-2.14L170 314h6v23h-5v-2l-2 1.5c-4.147 2.073-6.381 2.087-11 1.5-2.514-2.162-3.836-3.86-4.315-7.192-.079-2.552-.034-5.07.065-7.62l.055-2.678L154 314z" fill="#121212"/><path d="M270 307h5v7h6v5h-5l1 12 5 2v5l-4.313.25-2.425.14C273 338 273 338 271.219 336.47c-1.676-3.396-1.543-6.526-1.406-10.219l.04-2.113.147-5.137h-4v-5h4v-7z" fill="#0e0e0e"/><path d="M340 313h6l1 2 2-2h7v6l-3.375.375c-3.656.272-3.656.272-5.625 2.625a114.874 114.874 0 0 0-.625 8.125l-.117 2.285A762.735 762.735 0 0 0 346 338h-6v-25z" fill="#1d1d1d"/><path d="M124 130h4v2l2.5.75c3.376 1.206 6.418 2.661 9.598 4.297 2.25 1.127 4.546 2.07 6.902 2.953v7c-5.354-1.557-10.002-3.982-14.875-6.625l-2.375-1.273L124 136v-6z" fill="#00ba8c"/><path d="M356 130v6c-15.465 8.488-15.465 8.488-23 11v-7l10.375-5 2.984-1.445 2.852-1.368 2.634-1.269C354 130 354 130 356 130z" fill="#089974"/><path d="M226 319l3 2c.398 2.094.398 2.094.375 4.5l.023 2.406L229 330c-3.68 2.453-5.654 2.395-10 2-2.463-3.695-2.39-5.633-2-10 2.165-3.73 4.98-3.419 9-3zm-29 0l3 2c.398 2.094.398 2.094.375 4.5l.023 2.406L200 330c-3.68 2.453-5.654 2.395-10 2-2.463-3.695-2.39-5.633-2-10 2.165-3.73 4.98-3.419 9-3z" fill="#ededed"/><path d="M133 309h9c2 2 2 2 2.25 4.5C144 316 144 316 142 318c-3.018.272-5.964.087-9 0v-9z" fill="#e3e3e3"/><path d="M143.5 218.75c2.5.25 2.5.25 4.5 2.25-.33 3.297-.623 4.623-3 7-4.556-.556-4.556-.556-6-2-.188-2.438-.188-2.438 0-5 2-2 2-2 4.5-2.25zm-15 0c2.5.25 2.5.25 4.5 2.25-.33 3.297-.623 4.623-3 7-4.556-.556-4.556-.556-6-2-.188-2.438-.188-2.438 0-5 2-2 2-2 4.5-2.25z" fill="#1d1d1d"/><path d="M318 327h17c-3.755 3.755-5.859 5.107-11.125 5.25C320 332 320 332 318 330v-3Z" fill="#dedede"/><path d="M159.125 218.875L162 219v7c-1 1-1 1-4 1.125-3-.125-3-.125-4-1.125-.188-2.438-.188-2.438 0-5 2-2 2-2 5.125-2.125z" fill="#171717"/><path d="M292 327h17c-5.455 4.091-8.052 5.515-15 5l-2-2v-3zm-46 0h17c-5.455 4.091-8.052 5.515-15 5l-2-2v-3z" fill="#e4e4e4"/><path d="M296.875 317.75c3.125.25 3.125.25 5 1.625C303 321 303 321 303 323h-11c1.233-4.933 1.233-4.933 4.875-5.25zm-46 0c3.125.25 3.125.25 5 1.625C257 321 257 321 257 323h-11c1.233-4.933 1.233-4.933 4.875-5.25z" fill="#bfbfbf"/><path d="M321 318h6l2 4h-10l2-4Z" fill="#dcdcdc"/></svg>