<?xml version="1.0" encoding="UTF-8"?>
<svg version="1.1" xmlns="http://www.w3.org/2000/svg" width="374" height="333">
<path d="M0 0 C25.06549735 -0.80517659 46.31235201 7.28557869 65.421875 23.16015625 C66.4325 23.92328125 67.443125 24.68640625 68.484375 25.47265625 C86.54538693 41.99656078 96.64640096 65.62041943 98.33203125 89.8359375 C98.36167969 90.60292969 98.39132812 91.36992187 98.421875 92.16015625 C98.46183594 93.04058594 98.50179687 93.92101562 98.54296875 94.828125 C99.02254157 115.73185781 94.4764338 141.83873313 80.421875 158.16015625 C79.761875 158.16015625 79.101875 158.16015625 78.421875 158.16015625 C78.36 158.73765625 78.298125 159.31515625 78.234375 159.91015625 C77.09145551 163.07516407 75.07424103 164.08439153 72.421875 166.16015625 C71.3400066 167.39343117 70.27927507 168.64540723 69.234375 169.91015625 C53.27337183 188.37148824 29.81954727 194.67476009 6.41796875 196.37890625 C-16.14104969 197.13191938 -39.76373227 190.15508184 -56.640625 174.97265625 C-58.30374266 173.38641614 -59.95034682 171.78264084 -61.578125 170.16015625 C-62.43792969 169.30550781 -63.29773438 168.45085937 -64.18359375 167.5703125 C-65.36888672 166.37728516 -65.36888672 166.37728516 -66.578125 165.16015625 C-67.42117187 164.31324219 -67.42117187 164.31324219 -68.28125 163.44921875 C-85.22251374 145.22452594 -92.65216112 119.99019667 -91.8671875 95.40625 C-89.47208607 68.50990831 -81.4541549 43.54433592 -60.91015625 24.71484375 C-58.18666381 22.44846781 -55.41046356 20.28845637 -52.578125 18.16015625 C-51.79953125 17.54398438 -51.0209375 16.9278125 -50.21875 16.29296875 C-35.50872884 5.18640915 -18.11464106 1.12530346 0 0 Z M-22.578125 55.16015625 C-22.578125 55.82015625 -22.578125 56.48015625 -22.578125 57.16015625 C-29.013125 57.65515625 -29.013125 57.65515625 -35.578125 58.16015625 C-35.908125 59.48015625 -36.238125 60.80015625 -36.578125 62.16015625 C-35.40443359 62.14275391 -35.40443359 62.14275391 -34.20703125 62.125 C-33.19511719 62.11597656 -32.18320313 62.10695313 -31.140625 62.09765625 C-30.13128906 62.08605469 -29.12195313 62.07445312 -28.08203125 62.0625 C-25.578125 62.16015625 -25.578125 62.16015625 -24.578125 63.16015625 C-24.47628878 65.71739824 -24.43862737 68.24694665 -24.4453125 70.8046875 C-24.44399323 71.59335709 -24.44267395 72.38202667 -24.4413147 73.19459534 C-24.43938426 75.78732115 -24.44577028 78.37994122 -24.453125 80.97265625 C-24.45401123 81.85407288 -24.45489746 82.7354895 -24.45581055 83.64361572 C-24.47051645 96.08452459 -24.69966104 108.49305952 -25.2199707 120.92407227 C-25.58552969 129.67575195 -25.69072613 138.40229038 -25.578125 147.16015625 C-24.85367188 147.14855469 -24.12921875 147.13695312 -23.3828125 147.125 C-15.23162476 147.04892225 -15.23162476 147.04892225 -11.640625 147.66015625 C0.64297098 149.66564131 12.63361253 147.70267959 23.109375 140.88671875 C35.26058231 131.81436464 42.25598482 119.72957528 44.55883789 104.82885742 C46.08812155 93.15735461 45.51733646 80.54172079 39.421875 70.16015625 C31.854956 61.45106079 19.82238635 55.27852473 8.421875 54.16015625 C4.60813282 54.0261891 0.80012799 54.02043309 -3.015625 54.03515625 C-4.51319336 54.02935547 -4.51319336 54.02935547 -6.04101562 54.0234375 C-11.64811913 54.03081042 -17.03241935 54.32730892 -22.578125 55.16015625 Z " fill="#FAFAFA" transform="translate(180.578125,68.83984375)"/>
<path d="M0 0 C10.83518901 0.0589217 19.32014293 1.36272384 28.0625 8.1875 C37.30618326 17.60632674 38.30862327 29.1419192 38.31347656 41.71801758 C38.1602421 53.8502398 36.0046321 66.38534151 27.75 75.80078125 C23.01533217 79.69153838 17.14999155 82.1875 11.0625 82.1875 C11.0625 82.8475 11.0625 83.5075 11.0625 84.1875 C8.14558475 84.24151695 5.22967276 84.28118066 2.3125 84.3125 C1.075 84.33763672 1.075 84.33763672 -0.1875 84.36328125 C-0.98671875 84.36972656 -1.7859375 84.37617188 -2.609375 84.3828125 C-3.3425293 84.39328613 -4.07568359 84.40375977 -4.83105469 84.41455078 C-7.23646076 84.15527544 -8.85001494 83.37975925 -10.9375 82.1875 C-10.87633087 79.91145756 -10.81512676 77.63541606 -10.75390625 75.359375 C-10.72471352 74.27317116 -10.72471352 74.27317116 -10.69493103 73.1650238 C-10.5852464 69.08826336 -10.47484592 65.0115239 -10.36328125 60.93481445 C-10.14981024 53.12241898 -9.93836574 45.3100386 -9.74559021 37.49710083 C-9.66477449 34.2369037 -9.58097362 30.97678666 -9.49679565 27.7166748 C-9.45755873 26.16714945 -9.41971591 24.61758811 -9.3833313 23.06799316 C-9.33210038 20.89287654 -9.27592777 18.71793607 -9.21875 16.54296875 C-9.18845703 15.31215576 -9.15816406 14.08134277 -9.12695312 12.81323242 C-8.45963929 0.04225594 -8.45963929 0.04225594 0 0 Z " fill="#F8F8F8" transform="translate(175.9375,127.8125)"/>
<path d="M0 0 C1.98 0.99 1.98 0.99 4 2 C4.09763099 21.29188345 4.16443464 40.55500041 3.35791016 59.83398438 C3.00740708 68.23087384 2.88255727 76.59632016 3 85 C3.65226563 84.98839844 4.30453125 84.97679687 4.9765625 84.96484375 C12.35955447 84.88861817 12.35955447 84.88861817 15.875 85.5 C24.72538239 86.91606118 33.31036679 85.91582464 42 84 C42 84.66 42 85.32 42 86 C36.40350711 87.58912761 31.49020307 88.29430231 25.6875 88.1875 C24.94910889 88.18105469 24.21071777 88.17460937 23.44995117 88.16796875 C18.40322567 88.09753141 13.41039506 87.80217842 8.39453125 87.21875 C5.58770687 86.96233537 2.81723632 86.98648692 0 87 C0.06058594 85.72922607 0.12117187 84.45845215 0.18359375 83.14916992 C1.19486503 61.69095518 2.19863061 40.23554073 2.25 18.75 C2.25499512 18.01502289 2.25999023 17.28004578 2.26513672 16.52279663 C2.27675506 14.46812289 2.27407549 12.41405279 2.265625 10.359375 C2.26336914 9.21952148 2.26111328 8.07966797 2.25878906 6.90527344 C2.00604961 4.06791548 1.47548737 2.40444366 0 0 Z " fill="#AEAEAE" transform="translate(153,130)"/>
<path d="M0 0 C0.66 0 1.32 0 2 0 C0.39516194 4.66861981 -1.97490194 9.09258167 -5 13 C-5.66 13 -6.32 13 -7 13 C-7.0928125 13.86625 -7.0928125 13.86625 -7.1875 14.75 C-8.33041949 17.91500782 -10.34763397 18.92423528 -13 21 C-14.0818684 22.23327492 -15.14259993 23.48525098 -16.1875 24.75 C-21.37351107 30.80980286 -27.39671133 36.32126129 -35 39 C-33.70829071 35.12487212 -32.03126318 34.40141626 -28.6875 32.125 C-25.55055229 29.98902759 -23.18525673 28.23565992 -20.83203125 25.2421875 C-20.22746094 24.50226563 -19.62289062 23.76234375 -19 23 C-18.01 23 -17.02 23 -16 23 C-15.9071875 22.13375 -15.9071875 22.13375 -15.8125 21.25 C-15 19 -15 19 -12.875 17.375 C-7.93648842 13.29536 -4.54208663 7.73853315 -1.4140625 2.18359375 C-0.94742188 1.46300781 -0.48078125 0.74242187 0 0 Z " fill="#535353" transform="translate(266,214)"/>
<path d="M0 0 C2.98568956 1.33998268 4.9947834 2.83392382 7.3125 5.125 C16.18220225 13.05322548 28.040563 17.75500392 39 22 C37 23 37 23 34.19921875 22.28515625 C21.04768481 17.70625734 9.78177938 11.09091011 0 1 C0 0.67 0 0.34 0 0 Z " fill="#5D5D5D" transform="translate(119,238)"/>
<path d="M0 0 C0 0.66 0 1.32 0 2 C-2.6226232 3.33819498 -5.24786599 4.6707151 -7.875 6 C-8.62136719 6.3815625 -9.36773437 6.763125 -10.13671875 7.15625 C-10.85214844 7.5171875 -11.56757813 7.878125 -12.3046875 8.25 C-12.96452637 8.58515625 -13.62436523 8.9203125 -14.30419922 9.265625 C-16 10 -16 10 -18 10 C-18.33 10.99 -18.66 11.98 -19 13 C-22.5625 14.1875 -22.5625 14.1875 -26 15 C-20.34046873 8.58586456 -8.91436955 0 0 0 Z " fill="#696969" transform="translate(153,74)"/>
<path d="M0 0 C0.66 0.33 1.32 0.66 2 1 C-1.51148257 5.18723179 -5.13394584 9.13394584 -9 13 C-9.86184286 14.05628302 -10.71591727 15.11894741 -11.5625 16.1875 C-13.72122523 18.67833681 -14.97388196 19.87921554 -18 21 C-14.129309 12.49620917 -7.18651143 5.77214482 0 0 Z " fill="#606060" transform="translate(125,89)"/>
<path d="M0 0 C0.66 0 1.32 0 2 0 C0.39516194 4.66861981 -1.97490194 9.09258167 -5 13 C-5.66 13 -6.32 13 -7 13 C-7.061875 13.598125 -7.12375 14.19625 -7.1875 14.8125 C-8.3236757 17.87143458 -10.17330142 18.55041099 -13 20 C-11.4197475 16.52016937 -9.34170645 13.6226636 -7.0625 10.5625 C-5.01095299 7.8053742 -3.07821171 5.13672982 -1.37109375 2.15234375 C-0.91863281 1.44207031 -0.46617187 0.73179687 0 0 Z " fill="#383838" transform="translate(266,214)"/>
<path d="M0 0 C0.66 0 1.32 0 2 0 C0.66828535 5.46003007 -1.83779951 9.29700943 -6 13 C-9.375 14.4375 -9.375 14.4375 -12 15 C-12 14.34 -12 13.68 -12 13 C-10.948125 12.29875 -9.89625 11.5975 -8.8125 10.875 C-5.05769287 8.34392556 -3.17871372 5.51769325 -1.04296875 1.57421875 C-0.69878906 1.05472656 -0.35460937 0.53523437 0 0 Z " fill="#666666" transform="translate(208,192)"/>
<path d="M0 0 C2.35424675 -0.02726927 4.70816962 -0.04696719 7.0625 -0.0625 C8.37347656 -0.07410156 9.68445313 -0.08570312 11.03515625 -0.09765625 C14.8163519 -0.00452335 18.27920707 0.38551274 22 1 C22 1.66 22 2.32 22 3 C20.1128125 2.7525 20.1128125 2.7525 18.1875 2.5 C8.48241304 1.39186066 8.48241304 1.39186066 -1 3 C-0.67 2.01 -0.34 1.02 0 0 Z " fill="#A0A0A0" transform="translate(169,128)"/>
<path d="M0 0 C0.66 0.33 1.32 0.66 2 1 C-1.01887244 4.48331435 -3.56909529 5.79157144 -8 7 C-8 6.34 -8 5.68 -8 5 C-6.3203125 3.67578125 -6.3203125 3.67578125 -4.125 2.3125 C-3.40570313 1.85488281 -2.68640625 1.39726562 -1.9453125 0.92578125 C-1.30335938 0.62027344 -0.66140625 0.31476563 0 0 Z " fill="#6E6E6E" transform="translate(204,208)"/>
<path d="M0 0 C0.66 0 1.32 0 2 0 C1.67 1.32 1.34 2.64 1 4 C-1.31 4.66 -3.62 5.32 -6 6 C-4 4 -2 2 0 0 Z " fill="#787878" transform="translate(133,83)"/>
<path d="M0 0 C0.66 0 1.32 0 2 0 C0.87548273 2.9719385 -0.22293791 5.33440687 -2 8 C-2.66 7.67 -3.32 7.34 -4 7 C-2.68 4.69 -1.36 2.38 0 0 Z " fill="#4D4D4D" transform="translate(266,214)"/>
<path d="M0 0 C0.66 0.33 1.32 0.66 2 1 C0.35 2.98 -1.3 4.96 -3 7 C-3.99 6.67 -4.98 6.34 -6 6 C-4.02 4.02 -2.04 2.04 0 0 Z " fill="#4F4F4F" transform="translate(125,89)"/>
</svg>
