<svg version="1.1" id="Layer_1" xmlns="http://www.w3.org/2000/svg" xmlns:xlink="http://www.w3.org/1999/xlink" x="0px" y="0px"
	 width="100%" viewBox="0 0 542 540" enable-background="new 0 0 542 540" xml:space="preserve">
<path fill="#3C6DF0" opacity="1.000000" stroke="none" 
	d="
M0.999999,508.000000 
	C1.000000,348.975922 1.000000,189.951843 1.275359,30.804695 
	C1.927583,30.358480 2.532735,30.101465 2.648266,29.702621 
	C6.575902,16.143576 15.481280,7.417881 28.615992,2.710081 
	C28.910475,2.604531 28.879278,1.590340 29.000000,1.000000 
	C189.024078,1.000000 349.048157,1.000000 509.195740,1.266144 
	C515.564453,5.165897 522.755066,7.442964 527.045532,14.272251 
	C530.032410,22.106024 533.016235,29.553013 536.000000,37.333336 
	C536.000000,38.111111 536.000000,38.555557 535.670898,39.197979 
	C534.894531,41.928097 534.056885,44.460072 534.055847,46.992397 
	C533.993286,194.920319 533.999939,342.848267 534.001221,490.776215 
	C534.001282,492.275360 533.768250,493.833923 534.103760,495.256287 
	C534.416016,496.579651 535.343445,497.757874 536.000000,499.333344 
	C536.000000,500.111115 536.000000,500.555573 535.804932,501.306946 
	C533.101318,508.184082 532.501160,515.569580 527.034668,520.897156 
	C526.162659,521.747009 526.347107,523.680969 525.907715,525.420532 
	C519.216370,532.360168 511.451752,536.922302 502.011963,536.928406 
	C347.017059,537.028748 192.022018,537.000244 37.027020,536.991272 
	C35.534885,536.991211 33.950027,537.169678 32.564938,536.749268 
	C18.471300,532.471191 7.933860,524.242554 2.979033,509.853119 
	C2.718931,509.097809 1.677614,508.611542 0.999999,508.000000 
M293.031250,229.027267 
	C293.031250,229.027267 293.097443,229.057571 292.428680,229.197937 
	C291.215332,229.521866 290.001984,229.845795 287.995636,230.381439 
	C287.995636,222.512436 288.047211,215.230621 287.980194,207.949875 
	C287.920990,201.517303 286.452881,200.034729 279.947327,200.020752 
	C258.973816,199.975708 238.000107,199.975174 217.026611,200.021240 
	C210.534882,200.035507 209.023224,201.520660 209.021118,207.975708 
	C208.994766,288.540955 208.991348,369.106201 209.078918,449.671356 
	C209.080856,451.448364 210.222961,453.224121 211.023621,455.853607 
	C212.481216,456.235718 213.937805,456.946381 215.396530,456.950775 
	C238.553589,457.020508 261.710938,457.004333 284.868195,456.987457 
	C286.142822,456.986542 287.417328,456.808716 289.001068,456.690063 
	C289.001068,454.587128 289.001068,452.782867 289.001068,450.978638 
	C289.001068,409.495453 288.828644,368.011017 289.137665,326.530121 
	C289.204376,317.577545 290.291809,308.484619 292.172211,299.727539 
	C295.131927,285.943848 301.962006,274.636230 315.725769,268.652924 
	C325.467316,264.418152 335.707031,264.233124 345.796692,265.291382 
	C352.433105,265.987457 358.888153,268.544800 364.179260,273.539001 
	C375.594910,284.314117 378.632874,298.414246 378.800873,312.842865 
	C379.336121,358.817993 378.999695,404.803253 379.000000,450.784607 
	C379.000000,452.727722 379.000000,454.670807 379.000000,456.679352 
	C405.267822,456.679352 430.981903,456.679352 457.001068,456.679352 
	C457.001068,454.552979 457.001099,452.744904 457.001068,450.936798 
	C457.000732,406.288239 457.141052,361.638947 456.908813,316.991608 
	C456.844482,304.630249 455.943542,292.252716 454.942444,279.921906 
	C453.613068,263.546844 449.349213,247.992264 441.234802,233.519714 
	C433.287964,219.346100 421.780029,209.616562 406.662079,203.897812 
	C389.214142,197.297714 371.251038,195.508087 352.704346,196.861923 
	C341.711395,197.664368 331.671875,200.914932 321.890411,205.563278 
	C311.953339,210.285614 303.901398,217.483917 295.436249,225.219620 
	C294.644531,226.510971 293.852814,227.802322 293.031250,229.027267 
M96.214577,160.806122 
	C101.497505,167.061386 109.508850,166.394440 116.375595,168.583755 
	C116.936653,168.762650 118.111076,167.017761 119.908981,166.026520 
	C135.032196,166.564758 147.414291,160.874924 156.497864,148.892715 
	C167.615417,134.227448 169.356506,118.059143 161.647217,101.398811 
	C153.523575,83.843002 134.809677,73.499657 115.123878,76.197044 
	C103.519592,77.787079 93.179665,82.771004 85.628059,92.636322 
	C78.162910,102.388695 75.019829,113.197273 76.039253,125.240410 
	C77.280678,139.906387 84.802452,151.120331 96.214577,160.806122 
M129.500000,202.998901 
	C113.745834,202.998901 97.991676,202.998901 82.387100,202.998901 
	C82.387100,288.075958 82.387100,372.452667 82.387100,456.738647 
	C108.376495,456.738647 133.976898,456.738647 159.700775,456.738647 
	C159.700775,372.100586 159.700775,287.724152 159.700775,202.998901 
	C149.769653,202.998901 140.134827,202.998901 129.500000,202.998901 
z"/>
<path fill="#000000" opacity="1.000000" stroke="none" 
	d="
M527.042419,13.885468 
	C522.755066,7.442964 515.564453,5.165897 509.659637,1.266144 
	C520.995789,1.000000 531.991638,1.000000 542.990601,1.000000 
	C542.993713,180.927261 542.993713,360.854523 542.993713,540.890869 
	C362.333374,540.890869 181.666702,540.890869 1.000000,540.890869 
	C1.000000,530.262329 1.000000,519.599792 0.999999,508.468658 
	C1.677614,508.611542 2.718931,509.097809 2.979033,509.853119 
	C7.933860,524.242554 18.471300,532.471191 32.564938,536.749268 
	C33.950027,537.169678 35.534885,536.991211 37.027020,536.991272 
	C192.022018,537.000244 347.017059,537.028748 502.011963,536.928406 
	C511.451752,536.922302 519.216370,532.360168 526.218323,525.278809 
	C533.721497,518.449524 536.684937,510.150055 537.903564,500.535889 
	C537.982544,346.874969 537.994019,193.678055 537.960449,40.481129 
	C537.960144,38.950954 537.364990,37.420910 537.151794,35.562820 
	C536.413330,26.892792 533.625732,19.481188 527.042419,13.885468 
z"/>
<path fill="#000000" opacity="1.000000" stroke="none" 
	d="
M28.531342,1.000000 
	C28.879278,1.590340 28.910475,2.604531 28.615992,2.710081 
	C15.481280,7.417881 6.575902,16.143576 2.648266,29.702621 
	C2.532735,30.101465 1.927583,30.358480 1.275359,30.340813 
	C1.000000,20.408154 1.000000,10.816306 1.000000,1.000000 
	C10.019656,1.000000 19.041170,1.000000 28.531342,1.000000 
z"/>
<path fill="#000000" opacity="1.000000" stroke="none" 
	d="
M296.114960,225.042313 
	C303.901398,217.483917 311.953339,210.285614 321.890411,205.563278 
	C331.671875,200.914932 341.711395,197.664368 352.704346,196.861923 
	C371.251038,195.508087 389.214142,197.297714 406.662079,203.897812 
	C421.780029,209.616562 433.287964,219.346100 441.234802,233.519714 
	C449.349213,247.992264 453.613068,263.546844 454.942444,279.921906 
	C455.943542,292.252716 456.844482,304.630249 456.908813,316.991608 
	C457.141052,361.638947 457.000732,406.288239 457.001068,450.936798 
	C457.001099,452.744904 457.001068,454.552979 457.001068,456.679352 
	C430.981903,456.679352 405.267822,456.679352 379.000000,456.679352 
	C379.000000,454.670807 379.000000,452.727722 379.000000,450.784607 
	C378.999695,404.803253 379.336121,358.817993 378.800873,312.842865 
	C378.632874,298.414246 375.594910,284.314117 364.179260,273.539001 
	C358.888153,268.544800 352.433105,265.987457 345.796692,265.291382 
	C335.707031,264.233124 325.467316,264.418152 315.725769,268.652924 
	C301.962006,274.636230 295.131927,285.943848 292.172211,299.727539 
	C290.291809,308.484619 289.204376,317.577545 289.137665,326.530121 
	C288.828644,368.011017 289.001068,409.495453 289.001068,450.978638 
	C289.001068,452.782867 289.001068,454.587128 289.001068,456.690063 
	C287.417328,456.808716 286.142822,456.986542 284.868195,456.987457 
	C261.710938,457.004333 238.553589,457.020508 215.396530,456.950775 
	C213.937805,456.946381 212.481216,456.235718 210.998749,454.962982 
	C210.973877,370.524567 210.973877,286.976776 210.973877,203.294495 
	C236.226974,203.294495 260.934570,203.294495 285.999878,203.294495 
	C285.999878,209.381973 285.810150,215.188248 286.054474,220.976196 
	C286.287506,226.497406 284.962494,232.197983 287.384277,238.868088 
	C289.723694,234.850876 291.410583,231.954224 293.097443,229.057571 
	C293.097443,229.057571 293.031250,229.027267 293.351501,228.925293 
	C294.486176,227.562988 295.300568,226.302658 296.114960,225.042313 
z"/>
<path fill="#000000" opacity="1.000000" stroke="none" 
	d="
M130.000000,202.998901 
	C140.134827,202.998901 149.769653,202.998901 159.700775,202.998901 
	C159.700775,287.724152 159.700775,372.100586 159.700775,456.738647 
	C133.976898,456.738647 108.376495,456.738647 82.387100,456.738647 
	C82.387100,372.452667 82.387100,288.075958 82.387100,202.998901 
	C97.991676,202.998901 113.745834,202.998901 130.000000,202.998901 
z"/>
<path fill="#000000" opacity="1.000000" stroke="none" 
	d="
M95.999588,160.166809 
	C84.802452,151.120331 77.280678,139.906387 76.039253,125.240410 
	C75.019829,113.197273 78.162910,102.388695 85.628059,92.636322 
	C93.179665,82.771004 103.519592,77.787079 115.123878,76.197044 
	C134.809677,73.499657 153.523575,83.843002 161.647217,101.398811 
	C169.356506,118.059143 167.615417,134.227448 156.497864,148.892715 
	C147.414291,160.874924 135.032196,166.564758 119.020737,166.026581 
	C115.902618,165.727203 113.597054,165.691025 111.457886,165.076065 
	C106.263939,163.582901 101.147346,161.820648 95.999588,160.166809 
z"/>
<path fill="#3C6DEF" opacity="1.000000" stroke="none" 
	d="
M537.047546,35.890808 
	C537.364990,37.420910 537.960144,38.950954 537.960449,40.481129 
	C537.994019,193.678055 537.982544,346.874969 537.598022,500.535950 
	C536.814758,501.000000 536.407410,501.000000 536.000000,501.000000 
	C536.000000,500.555573 536.000000,500.111115 536.000000,498.864685 
	C536.000000,345.041779 536.000000,192.020889 536.000000,39.000000 
	C536.000000,38.555557 536.000000,38.111111 536.188416,37.161831 
	C536.600403,36.401600 536.823975,36.146206 537.047546,35.890808 
z"/>
<path fill="#3C6DF0" opacity="1.000000" stroke="none" 
	d="
M535.670898,39.197979 
	C536.000000,192.020889 536.000000,345.041779 536.000000,498.531342 
	C535.343445,497.757874 534.416016,496.579651 534.103760,495.256287 
	C533.768250,493.833923 534.001282,492.275360 534.001221,490.776215 
	C533.999939,342.848267 533.993286,194.920319 534.055847,46.992397 
	C534.056885,44.460072 534.894531,41.928097 535.670898,39.197979 
z"/>
<path fill="#3C6DF0" opacity="1.000000" stroke="none" 
	d="
M292.763062,229.127747 
	C291.410583,231.954224 289.723694,234.850876 287.384277,238.868088 
	C284.962494,232.197983 286.287506,226.497406 286.054474,220.976196 
	C285.810150,215.188248 285.999878,209.381973 285.999878,203.294495 
	C260.934570,203.294495 236.226974,203.294495 210.973877,203.294495 
	C210.973877,286.976776 210.973877,370.524567 210.903534,454.536407 
	C210.222961,453.224121 209.080856,451.448364 209.078918,449.671356 
	C208.991348,369.106201 208.994766,288.540955 209.021118,207.975708 
	C209.023224,201.520660 210.534882,200.035507 217.026611,200.021240 
	C238.000107,199.975174 258.973816,199.975708 279.947327,200.020752 
	C286.452881,200.034729 287.920990,201.517303 287.980194,207.949875 
	C288.047211,215.230621 287.995636,222.512436 287.995636,230.381439 
	C290.001984,229.845795 291.215332,229.521866 292.763062,229.127747 
z"/>
<path fill="#3C6DF0" opacity="1.000000" stroke="none" 
	d="
M535.804932,501.306946 
	C536.407410,501.000000 536.814758,501.000000 537.527710,500.999939 
	C536.684937,510.150055 533.721497,518.449524 526.353760,524.971985 
	C526.347107,523.680969 526.162659,521.747009 527.034668,520.897156 
	C532.501160,515.569580 533.101318,508.184082 535.804932,501.306946 
z"/>
<path fill="#3C6DF0" opacity="1.000000" stroke="none" 
	d="
M537.151794,35.562828 
	C536.823975,36.146206 536.600403,36.401600 536.188416,36.828499 
	C533.016235,29.553013 530.032410,22.106024 527.045532,14.272251 
	C533.625732,19.481188 536.413330,26.892792 537.151794,35.562828 
z"/>
<path fill="#3C6DF0" opacity="1.000000" stroke="none" 
	d="
M96.107086,160.486465 
	C101.147346,161.820648 106.263939,163.582901 111.457886,165.076065 
	C113.597054,165.691025 115.902618,165.727203 118.566498,166.096710 
	C118.111076,167.017761 116.936653,168.762650 116.375595,168.583755 
	C109.508850,166.394440 101.497505,167.061386 96.107086,160.486465 
z"/>
<path fill="#3C6DF0" opacity="1.000000" stroke="none" 
	d="
M295.775604,225.130966 
	C295.300568,226.302658 294.486176,227.562988 293.366425,228.958496 
	C293.852814,227.802322 294.644531,226.510971 295.775604,225.130966 
z"/>
</svg>